<svg width="44" height="44" viewBox="0 0 44 44" fill="none" xmlns="http://www.w3.org/2000/svg">
<circle cx="22" cy="22.0002" r="22.0002" fill="#3E5899"/>
<path d="M17.2719 22.653H19.4642V31.6784C19.4642 31.8566 19.6086 32.001 19.7868 32.001H23.5039C23.6821 32.001 23.8265 31.8566 23.8265 31.6784V22.6955H26.3468C26.5106 22.6955 26.6485 22.5725 26.6672 22.4097L27.05 19.087C27.0605 18.9956 27.0315 18.9041 26.9704 18.8355C26.9092 18.7668 26.8215 18.7276 26.7296 18.7276H23.8266V16.6447C23.8266 16.0168 24.1647 15.6985 24.8315 15.6985C24.9266 15.6985 26.7296 15.6985 26.7296 15.6985C26.9078 15.6985 27.0522 15.554 27.0522 15.3759V12.3259C27.0522 12.1478 26.9078 12.0034 26.7296 12.0034H24.1138C24.0953 12.0025 24.0544 12.001 23.994 12.001C23.5401 12.001 21.9625 12.0901 20.7163 13.2365C19.3355 14.507 19.5275 16.0281 19.5733 16.2919V18.7275H17.2719C17.0937 18.7275 16.9493 18.8719 16.9493 19.0501V22.3303C16.9493 22.5085 17.0937 22.653 17.2719 22.653Z" fill="white"/>
</svg>
