<svg width="20" height="20" viewBox="0 0 20 20" fill="none" xmlns="http://www.w3.org/2000/svg">
<path fill-rule="evenodd" clip-rule="evenodd" d="M1.66666 13.3333C1.20642 13.3333 0.833328 13.7064 0.833328 14.1667C0.833328 14.6269 1.20642 15 1.66666 15H10.8333C11.2936 15 11.6667 14.6269 11.6667 14.1667C11.6667 13.7064 11.2936 13.3333 10.8333 13.3333H1.66666ZM15.8333 13.3333C15.3731 13.3333 15 13.7064 15 14.1667C15 14.6269 15.3731 15 15.8333 15H18.3333C18.7936 15 19.1667 14.6269 19.1667 14.1667C19.1667 13.7064 18.7936 13.3333 18.3333 13.3333H15.8333Z" fill="#506A7C"/>
<path fill-rule="evenodd" clip-rule="evenodd" d="M13.3333 17.5C15.1743 17.5 16.6667 16.0076 16.6667 14.1667C16.6667 12.3257 15.1743 10.8333 13.3333 10.8333C11.4924 10.8333 10 12.3257 10 14.1667C10 16.0076 11.4924 17.5 13.3333 17.5Z" fill="#506A7C"/>
<path fill-rule="evenodd" clip-rule="evenodd" d="M1.66666 5C1.20642 5 0.833328 5.3731 0.833328 5.83333C0.833328 6.29357 1.20642 6.66667 1.66666 6.66667H4.16666C4.6269 6.66667 4.99999 6.29357 4.99999 5.83333C4.99999 5.3731 4.6269 5 4.16666 5H1.66666ZM9.16666 5C8.70642 5 8.33333 5.3731 8.33333 5.83333C8.33333 6.29357 8.70642 6.66667 9.16666 6.66667H18.3333C18.7936 6.66667 19.1667 6.29357 19.1667 5.83333C19.1667 5.3731 18.7936 5 18.3333 5H9.16666Z" fill="#506A7C"/>
<path d="M6.66666 9.16667C8.50761 9.16667 9.99999 7.67428 9.99999 5.83333C9.99999 3.99238 8.50761 2.5 6.66666 2.5C4.82571 2.5 3.33333 3.99238 3.33333 5.83333C3.33333 7.67428 4.82571 9.16667 6.66666 9.16667Z" fill="#506A7C"/>
</svg>
