<svg width="173" height="36" viewBox="0 0 173 36" fill="none" xmlns="http://www.w3.org/2000/svg">
<g clip-path="url(#clip0_91_6981)">
<path d="M105.274 0.185249C108.997 -0.0119949 112.482 1.20733 115.593 3.55035C118.127 5.45704 118.757 7.89569 117.336 9.96376C115.938 12.002 113.511 12.1813 110.805 10.3104C107.48 8.01523 104.019 7.61477 100.462 9.53341C97.0363 11.3803 95.2758 14.3509 95.365 18.3018C95.5197 25.4683 103.228 29.9571 109.497 26.5382C110.014 26.2573 110.49 25.8867 110.99 25.564C113.464 23.98 115.986 24.255 117.306 26.2453C118.662 28.2955 118.055 30.6266 115.688 32.4436C105.857 40.0166 90.8805 34.8404 87.7461 22.7906C84.7127 11.1413 93.1109 0.167318 105.274 0.185249Z" fill="black"/>
<path d="M78.8127 17.9791C78.8067 8.02723 70.7833 0.0239083 60.8804 0.0239083C56.3899 0.0239083 48.087 -0.071725 46.4573 0.119542C44.0961 0.394488 42.6686 2.30716 42.9958 4.70397C43.2277 6.42537 44.4648 7.49527 45.9696 7.97343C44.0604 10.8365 42.9482 14.2793 42.9482 17.9851C42.9482 27.9369 50.9775 36.006 60.8804 36.006C64.568 36.006 67.9938 34.8883 70.8428 32.9696C71.3126 34.4818 72.3832 35.7251 74.0962 35.9582C76.4812 36.2869 78.4499 34.8584 78.658 32.4795C78.8484 30.268 78.8186 28.4091 78.8186 26.4367C78.8127 24.2789 78.8186 21.7088 78.8127 17.9791Z" fill="black"/>
<path d="M60.8804 27.7816C66.2544 27.7816 70.6108 23.4037 70.6108 18.0031C70.6108 12.6026 66.2544 8.22461 60.8804 8.22461C55.5065 8.22461 51.15 12.6026 51.15 18.0031C51.15 23.4037 55.5065 27.7816 60.8804 27.7816Z" fill="#6DCFF6"/>
<path d="M60.8804 22.7189C63.4853 22.7189 65.5969 20.5968 65.5969 17.9791C65.5969 15.3614 63.4853 13.2393 60.8804 13.2393C58.2756 13.2393 56.1639 15.3614 56.1639 17.9791C56.1639 20.5968 58.2756 22.7189 60.8804 22.7189Z" fill="black"/>
<path d="M168.849 36.0001C166.553 36.0001 164.697 34.1293 164.697 31.8281V4.33949C164.697 2.03233 166.559 0.16748 168.849 0.16748C171.144 0.16748 173 2.03831 173 4.33949V31.8281C173 34.1353 171.144 36.0001 168.849 36.0001Z" fill="black"/>
<path d="M155.329 29.24L143.059 15.8872L153.206 6.46733C154.669 5.10456 154.764 2.80935 153.408 1.33899C152.052 -0.131374 149.768 -0.227007 148.305 1.13577L134.697 13.7654V4.33949C134.697 2.03233 132.835 0.16748 130.546 0.16748C128.25 0.16748 126.394 2.03831 126.394 4.33949V31.8281C126.394 34.1353 128.256 36.0001 130.546 36.0001C132.841 36.0001 134.697 34.1293 134.697 31.8281V23.5499C134.899 23.4243 135.09 23.2809 135.274 23.1135L137.171 21.3503L149.441 34.7031C150.946 36.3348 153.48 36.4365 155.109 34.9302C156.727 33.424 156.828 30.8718 155.329 29.24Z" fill="black"/>
<path d="M33.5389 28.9948L22.9758 17.5008L32.3137 7.34575C33.872 5.65423 33.7649 3.01236 32.0817 1.44636C30.3985 -0.119636 27.7696 -0.012048 26.2114 1.67947L17.3196 11.3504L8.42186 1.67349C6.86357 -0.0180251 4.24065 -0.125613 2.55151 1.44038C0.868315 3.0004 0.761257 5.64228 2.31955 7.33379L11.6633 17.5008L1.10027 28.9948C-0.458016 30.6863 -0.350958 33.3281 1.33223 34.8941C3.01543 36.4601 5.6443 36.3526 7.20259 34.661L17.3196 23.6572L27.4366 34.661C28.9949 36.3526 31.6178 36.4601 33.3069 34.8941C34.9901 33.3281 35.0912 30.6863 33.5389 28.9948Z" fill="black"/>
</g>
<defs>
<clipPath id="clip0_91_6981">
<rect width="173" height="36" fill="white"/>
</clipPath>
</defs>
</svg>
