<svg width="22" height="21" viewBox="0 0 22 21" fill="none" xmlns="http://www.w3.org/2000/svg">
<path fill-rule="evenodd" clip-rule="evenodd" d="M14.7754 6.91317C14.7754 4.19956 12.6375 1.99999 9.99999 1.99999C7.3627 1.99999 5.22436 4.19981 5.22436 6.91317C5.22436 9.32402 4.32245 11.518 2.84627 13.1574C2.32442 13.8197 1.99999 14.6833 1.99999 15.6253V16H18V15.6253C18 14.6833 17.6756 13.8197 17.1537 13.1574C15.6775 11.5183 14.7754 9.32428 14.7754 6.91317ZM7.81519 17C7.77917 17 7.74997 17.0292 7.74997 17.0652V17.75C7.74997 18.9926 8.75734 20 9.99999 20C11.2426 20 12.25 18.9926 12.25 17.75V17.0652C12.25 17.0292 12.2208 17 12.1848 17H7.81519Z" fill="#506A7C"/>
<circle cx="19.5" cy="2.5" r="2.5" fill="#FE6363"/>
</svg>
