<svg width="20" height="20" viewBox="0 0 20 20" fill="none" xmlns="http://www.w3.org/2000/svg">
<path fill-rule="evenodd" clip-rule="evenodd" d="M10.0001 1C9.00595 1 8.20006 1.80589 8.20006 2.8C8.20006 2.9335 8.1095 3.04947 7.98133 3.08683C7.47569 3.23423 6.99306 3.4356 6.54008 3.68428C6.42272 3.7487 6.27629 3.7307 6.18162 3.63604C5.47868 2.9331 4.33898 2.93309 3.63604 3.63604C2.9331 4.33898 2.9331 5.47868 3.63604 6.18162C3.7307 6.27628 3.7487 6.42272 3.68428 6.54008C3.43561 6.99303 3.23425 7.47564 3.08685 7.98125C3.04948 8.10943 2.93351 8.2 2.8 8.2C1.80589 8.2 1 9.00589 1 10C1 10.9941 1.80589 11.8 2.8 11.8C2.93351 11.8 3.04948 11.8906 3.08685 12.0187C3.23425 12.5244 3.43561 13.007 3.68428 13.4599C3.7487 13.5773 3.7307 13.7237 3.63604 13.8184C2.9331 14.5213 2.9331 15.661 3.63604 16.364C4.33898 17.0669 5.47868 17.0669 6.18162 16.364C6.27629 16.2693 6.42272 16.2513 6.54008 16.3157C6.99306 16.5644 7.47569 16.7658 7.98133 16.9132C8.1095 16.9505 8.20006 17.0665 8.20006 17.2C8.20006 18.1941 9.00595 19 10.0001 19C10.9942 19 11.8001 18.1941 11.8001 17.2C11.8001 17.0665 11.8906 16.9505 12.0188 16.9131C12.5244 16.7657 13.007 16.5644 13.4599 16.3157C13.5773 16.2513 13.7237 16.2693 13.8184 16.364C14.5213 17.0669 15.661 17.0669 16.364 16.364C17.0669 15.661 17.0669 14.5213 16.364 13.8184C16.2693 13.7237 16.2513 13.5773 16.3157 13.4599C16.5644 13.007 16.7658 12.5244 16.9131 12.0187C16.9505 11.8906 17.0665 11.8 17.2 11.8C18.1941 11.8 19 10.9941 19 10C19 9.00589 18.1941 8.2 17.2 8.2C17.0665 8.2 16.9505 8.10943 16.9131 7.98125C16.7658 7.47564 16.5644 6.99303 16.3157 6.54008C16.2513 6.42273 16.2693 6.27629 16.364 6.18162C17.0669 5.47868 17.0669 4.33898 16.364 3.63604C15.661 2.9331 14.5213 2.9331 13.8184 3.63604C13.7237 3.7307 13.5773 3.7487 13.4599 3.68428C13.007 3.43562 12.5244 3.23427 12.0188 3.08687C11.8906 3.0495 11.8001 2.93352 11.8001 2.8C11.8001 1.80589 10.9942 1 10.0001 1ZM10.0001 12.7C11.4913 12.7 12.7001 11.4912 12.7001 10C12.7001 8.50883 11.4913 7.3 10.0001 7.3C8.50894 7.3 7.30011 8.50883 7.30011 10C7.30011 11.4912 8.50894 12.7 10.0001 12.7Z" fill="#506A7C"/>
</svg>
