<svg width="18" height="18" viewBox="0 0 18 18" fill="none" xmlns="http://www.w3.org/2000/svg">
<path fill-rule="evenodd" clip-rule="evenodd" d="M4 1C4 0.447715 4.44772 0 5 0C5.55228 0 6 0.447715 6 1V2H12V1C12 0.447715 12.4477 0 13 0C13.5523 0 14 0.447715 14 1V2H15C16.6569 2 18 3.34315 18 5V15C18 16.6569 16.6569 18 15 18H3C1.34315 18 0 16.6569 0 15V5C0 3.34315 1.34315 2 3 2H4V1ZM7 10C7 9.44771 7.44772 9 8 9H14C14.5523 9 15 9.44771 15 10C15 10.5523 14.5523 11 14 11H8C7.44772 11 7 10.5523 7 10ZM4 13C3.44772 13 3 13.4477 3 14C3 14.5523 3.44772 15 4 15H10C10.5523 15 11 14.5523 11 14C11 13.4477 10.5523 13 10 13H4Z" fill="#0CB1EC"/>
</svg>
