<svg width="44" height="44" viewBox="0 0 44 44" fill="none" xmlns="http://www.w3.org/2000/svg">
<circle cx="22" cy="22" r="22" fill="#E5EBF0"/>
<g opacity="0.25">
<path d="M24.3703 13.2838C25.0863 12.5678 26.2471 12.5678 26.9631 13.2838L29.412 15.7327C30.1279 16.4486 30.1279 17.6094 29.412 18.3254L20.1667 27.5707V17.4874L24.3703 13.2838Z" fill="#506A7C"/>
<path d="M22.19 30.3205C21.7816 30.3205 21.5771 29.8268 21.8659 29.538L28.2825 23.1214C28.3685 23.0355 28.485 22.9872 28.6066 22.9872H29.3333C30.3458 22.9872 31.1667 23.808 31.1667 24.8205V28.4871C31.1667 29.4997 30.3458 30.3205 29.3333 30.3205H22.19Z" fill="#506A7C"/>
</g>
<path fill-rule="evenodd" clip-rule="evenodd" d="M14.6668 11.9872C13.6542 11.9872 12.8334 12.808 12.8334 13.8206V28.4871C12.8334 29.4997 13.6542 30.3205 14.6668 30.3205H18.3334C19.3459 30.3205 20.1667 29.4997 20.1667 28.4871V13.8206C20.1667 12.808 19.3459 11.9872 18.3334 11.9872H14.6668ZM16.5001 27.5705C17.0063 27.5705 17.4167 27.1601 17.4167 26.6538C17.4167 26.1476 17.0063 25.7372 16.5001 25.7372C15.9938 25.7372 15.5834 26.1476 15.5834 26.6538C15.5834 27.1601 15.9938 27.5705 16.5001 27.5705Z" fill="#506A7C"/>
</svg>
