<svg width="44" height="44" viewBox="0 0 44 44" fill="none" xmlns="http://www.w3.org/2000/svg">
<circle cx="22" cy="22.0002" r="22.0002" fill="#1D9BF0"/>
<path d="M33 15.7357C32.1917 16.0937 31.3223 16.3326 30.4052 16.4456C31.3375 15.8921 32.0548 15.0092 32.3915 13.9663C31.519 14.4777 30.5524 14.8534 29.5241 15.0514C28.703 14.1807 27.5317 13.6406 26.234 13.6406C23.7412 13.6406 21.7207 15.6434 21.7207 18.113C21.7207 18.4625 21.7617 18.8028 21.8387 19.1333C18.0885 18.9451 14.7623 17.1623 12.5372 14.4569C12.1461 15.118 11.9262 15.8921 11.9262 16.709C11.9262 18.2614 12.7211 19.6282 13.9332 20.4335C13.1933 20.4109 12.4968 20.205 11.8871 19.875C11.8871 19.8885 11.8871 19.9086 11.8871 19.9276C11.8871 22.0972 13.4432 23.9038 15.5059 24.315C15.1289 24.4183 14.7306 24.4757 14.32 24.4757C14.0285 24.4757 13.7444 24.4427 13.4695 24.3932C14.0438 26.1663 15.71 27.4621 17.684 27.5006C16.1395 28.6982 14.1941 29.4154 12.0789 29.4154C11.7136 29.4154 11.3561 29.3947 11.003 29.3519C13.0015 30.6172 15.3745 31.359 17.9217 31.359C26.2218 31.359 30.7626 24.5429 30.7626 18.6299C30.7626 18.4362 30.7565 18.2431 30.7473 18.0525C31.6332 17.4268 32.397 16.6375 33 15.7357Z" fill="white"/>
</svg>
