<svg width="44" height="44" viewBox="0 0 44 44" fill="none" xmlns="http://www.w3.org/2000/svg">
<circle cx="22.001" cy="22.001" r="22.001" fill="#793DB2"/>
<path d="M31.8157 17.0364L31.8096 17.0123C31.3206 15.0356 29.1163 12.9145 27.0919 12.4732L27.069 12.4685C23.7947 11.8438 20.4747 11.8438 17.201 12.4685L17.1775 12.4732C15.1538 12.9145 12.9494 15.0356 12.4598 17.0123L12.4544 17.0364C11.8499 19.797 11.8499 22.5964 12.4544 25.357L12.4598 25.3812C12.9285 27.2735 14.9687 29.2971 16.9176 29.8537V32.0602C16.9176 32.8588 17.8908 33.2511 18.4442 32.6748L20.6799 30.3509C21.1647 30.378 21.6499 30.3931 22.135 30.3931C23.7833 30.3931 25.4322 30.2373 27.069 29.925L27.0919 29.9203C29.1163 29.479 31.3206 27.3579 31.8096 25.3812L31.8157 25.357C32.4202 22.5964 32.4202 19.797 31.8157 17.0364ZM30.0465 24.9567C29.7201 26.2463 28.0463 27.8495 26.7164 28.1457C24.9754 28.4768 23.2206 28.6183 21.4676 28.5697C21.4327 28.5688 21.3992 28.5823 21.3749 28.6073C21.1261 28.8626 19.7426 30.2829 19.7426 30.2829L18.0063 32.0648C17.8794 32.1972 17.6564 32.1072 17.6564 31.9245V28.2692C17.6564 28.2088 17.6133 28.1575 17.554 28.1458C17.5536 28.1458 17.5533 28.1457 17.553 28.1456C16.2231 27.8494 14.55 26.2462 14.2229 24.9566C13.6788 22.4614 13.6788 19.9319 14.2229 17.4367C14.55 16.1471 16.2231 14.5438 17.553 14.2476C20.5936 13.6693 23.6765 13.6693 26.7164 14.2476C28.047 14.5438 29.7201 16.1471 30.0465 17.4367C30.5912 19.932 30.5912 22.4614 30.0465 24.9567Z" fill="white"/>
<path d="M25.0279 26.6439C24.8235 26.5818 24.6286 26.5401 24.4477 26.465C22.5727 25.6871 20.8471 24.6835 19.4802 23.1451C18.7028 22.2702 18.0945 21.2825 17.5802 20.2373C17.3363 19.7416 17.1308 19.2265 16.9213 18.7148C16.7302 18.2481 17.0116 17.766 17.3079 17.4144C17.5859 17.0844 17.9436 16.8319 18.331 16.6457C18.6334 16.5005 18.9317 16.5842 19.1525 16.8405C19.6299 17.3946 20.0685 17.9771 20.4236 18.6194C20.6419 19.0145 20.582 19.4974 20.1863 19.7663C20.0901 19.8316 20.0024 19.9083 19.9128 19.9821C19.8343 20.0468 19.7603 20.1122 19.7064 20.1998C19.608 20.36 19.6033 20.549 19.6667 20.7233C20.1547 22.0644 20.9773 23.1073 22.3272 23.669C22.5432 23.7589 22.7601 23.8635 23.009 23.8345C23.4258 23.7858 23.5607 23.3287 23.8527 23.0898C24.1382 22.8564 24.503 22.8534 24.8105 23.0479C25.118 23.2426 25.4162 23.4515 25.7125 23.6627C26.0034 23.87 26.293 24.0728 26.5613 24.309C26.8193 24.5363 26.9082 24.8344 26.7629 25.1427C26.4969 25.7074 26.1099 26.1773 25.5516 26.4772C25.394 26.5617 25.2057 26.5891 25.0279 26.6439C25.2057 26.5891 24.8235 26.5817 25.0279 26.6439Z" fill="white"/>
<path d="M22.1401 16.0005C24.5927 16.0692 26.607 17.6969 27.0387 20.1216C27.1123 20.5347 27.1385 20.9571 27.1712 21.3764C27.1849 21.5528 27.0851 21.7204 26.8947 21.7227C26.6981 21.725 26.6097 21.5605 26.5969 21.3842C26.5717 21.0352 26.5541 20.6847 26.506 20.3386C26.2521 18.5116 24.7953 17.0001 22.9768 16.6758C22.7032 16.6269 22.4231 16.6141 22.1459 16.585C21.9706 16.5666 21.7411 16.556 21.7023 16.3382C21.6697 16.1556 21.8239 16.0101 21.9978 16.0008C22.0451 15.9982 22.0926 16.0003 22.1401 16.0005C24.5927 16.0692 22.0926 16.0003 22.1401 16.0005Z" fill="white"/>
<path d="M25.8673 20.8315C25.8633 20.8621 25.8611 20.9341 25.8432 21.0019C25.7781 21.2482 25.4048 21.279 25.3188 21.0305C25.2934 20.9567 25.2895 20.8728 25.2894 20.7934C25.2885 20.274 25.1756 19.7551 24.9137 19.3031C24.6444 18.8386 24.233 18.4481 23.7505 18.2118C23.4587 18.0689 23.1432 17.9801 22.8234 17.9272C22.6836 17.9041 22.5424 17.8901 22.4019 17.8705C22.2317 17.8469 22.1409 17.7384 22.1489 17.5707C22.1565 17.4135 22.2713 17.3005 22.4426 17.3101C23.0054 17.3421 23.5491 17.4638 24.0495 17.7287C25.067 18.2676 25.6483 19.1182 25.8179 20.254C25.8256 20.3054 25.838 20.3564 25.8419 20.408C25.8515 20.5356 25.8575 20.6633 25.8673 20.8315C25.8633 20.8621 25.8575 20.6633 25.8673 20.8315Z" fill="white"/>
<path d="M24.3418 20.7722C24.1366 20.7759 24.0268 20.6624 24.0057 20.4742C23.9909 20.343 23.9793 20.2101 23.948 20.0825C23.8864 19.8312 23.7528 19.5982 23.5413 19.4442C23.4415 19.3715 23.3284 19.3185 23.2099 19.2843C23.0594 19.2409 22.9031 19.2528 22.7529 19.216C22.5899 19.176 22.4997 19.044 22.5253 18.891C22.5486 18.7517 22.6841 18.6431 22.8362 18.6541C23.7871 18.7227 24.4667 19.2143 24.5637 20.3337C24.5705 20.4127 24.5786 20.4962 24.5611 20.5717C24.531 20.7011 24.4352 20.7659 24.3418 20.7722C24.4352 20.7659 24.1366 20.7759 24.3418 20.7722Z" fill="white"/>
</svg>
